<?xml version="1.0" encoding="UTF-8"?>
<svg version="1.1" xmlns="http://www.w3.org/2000/svg" width="350" height="350">
<path d="M0 0 C115.5 0 231 0 350 0 C350 115.5 350 231 350 350 C234.5 350 119 350 0 350 C0 234.5 0 119 0 0 Z " fill="#F27120" transform="translate(0,0)"/>
<path d="M0 0 C0.99 0.99 0.99 0.99 2 2 C0.82244141 2.63615234 0.82244141 2.63615234 -0.37890625 3.28515625 C-12.30927617 9.94566952 -19.8199728 17.1340381 -24.3125 30.1875 C-27.8374948 42.64727754 -26.43145556 53.52974951 -20.45703125 64.94921875 C-14.53799321 74.8774908 -6.43720455 82.27099204 4.87426758 85.54199219 C16.4701133 88.0404195 29.69535893 86.81994517 40 81 C43.18842946 78.85086687 46.09745148 76.51514472 49 74 C50.32582539 72.99006692 51.65703842 71.9870319 53 71 C54.73046265 76.2534364 55.35490743 80.85597654 55.3125 86.375 C55.30686035 87.15665527 55.3012207 87.93831055 55.29541016 88.74365234 C54.75858964 115.17541882 43.83851333 138.5884552 25.75 157.6875 C6.52818545 176.06625251 -18.47797138 185.43858566 -45.03173828 185.234375 C-67.39961336 184.71507246 -87.65109845 176.99288453 -105 163 C-105.70382813 162.44828125 -106.40765625 161.8965625 -107.1328125 161.328125 C-116.89726248 153.28681325 -123.75238052 142.87285031 -130 132 C-130.41121094 131.30390625 -130.82242188 130.6078125 -131.24609375 129.890625 C-134.65082774 123.69056467 -136.29802092 116.82297808 -138 110 C-138.22945313 109.10023438 -138.45890625 108.20046875 -138.6953125 107.2734375 C-141.68226146 93.01180796 -141.8254352 75.79529659 -137 62 C-136.6596875 60.82824219 -136.319375 59.65648437 -135.96875 58.44921875 C-131.41867482 43.40015254 -123.75100704 31.36888101 -113 20 C-112.31212402 19.27103516 -112.31212402 19.27103516 -111.61035156 18.52734375 C-82.50852632 -11.62190075 -37.34396876 -16.53080738 0 0 Z " fill="#FEFEFD" transform="translate(241,110)"/>
<path d="M0 0 C0.96808594 0.75410156 1.93617188 1.50820312 2.93359375 2.28515625 C8.60755807 6.77351608 13.45206112 11.38917203 18 17 C19.06154297 18.23169922 19.06154297 18.23169922 20.14453125 19.48828125 C25.87111739 26.22945846 30.68103751 33.28620128 35 41 C35.33918457 41.60440918 35.67836914 42.20881836 36.02783203 42.83154297 C47.98417551 64.51260398 52.78556533 87.3856198 52 112 C51.67 112 51.34 112 51 112 C50.84144531 111.030625 50.68289063 110.06125 50.51953125 109.0625 C45.00687417 76.77582356 29.52836481 47.14942546 2.640625 27.51171875 C-13.13546757 16.36407046 -31.78498911 7.8151464 -51 5 C-51.72574219 4.88914063 -52.45148438 4.77828125 -53.19921875 4.6640625 C-84.38648796 0.74579778 -116.96427744 8.39098524 -142.140625 27.3671875 C-144.80614955 29.53019513 -147.40885026 31.74888486 -150 34 C-150.94746094 34.74830078 -150.94746094 34.74830078 -151.9140625 35.51171875 C-160.53013005 42.37703285 -166.95935404 51.88783915 -173 61 C-173.50144531 61.73089844 -174.00289062 62.46179688 -174.51953125 63.21484375 C-190.31145404 87.59023909 -194.53464464 119.55309117 -188.98046875 147.6796875 C-181.70562141 181.19675617 -162.782155 209.0007197 -134.10595703 227.68554688 C-128.93603787 230.91240113 -123.5847116 233.55927419 -118 236 C-117.16210938 236.37382812 -116.32421875 236.74765625 -115.4609375 237.1328125 C-105.75496199 241.04601533 -95.20092625 242.81321946 -85 245 C-85 245.33 -85 245.66 -85 246 C-99.49559676 246.70064646 -112.07546451 245.01264323 -126 241 C-126.67337402 240.81840332 -127.34674805 240.63680664 -128.04052734 240.44970703 C-145.28581005 235.78069811 -161.51915775 226.63311842 -175 215 C-175.91136719 214.21496094 -176.82273438 213.42992187 -177.76171875 212.62109375 C-180.21517026 210.45369488 -182.61648275 208.24380842 -185 206 C-185.91845703 205.16082031 -185.91845703 205.16082031 -186.85546875 204.3046875 C-209.85329958 182.51726881 -224.22864433 147.94766322 -225.31640625 116.51953125 C-225.68386477 101.33814745 -225.22743848 86.68986615 -221 72 C-220.78569336 71.2359082 -220.57138672 70.47181641 -220.35058594 69.68457031 C-210.00665017 33.71417359 -185.63433065 4.12488634 -153 -14 C-104.17316255 -40.08624717 -43.05961537 -34.94430108 0 0 Z " fill="#FEFDFA" transform="translate(261,66)"/>
<path d="M0 0 C6.36796617 -0.05104188 12.73587884 -0.08587607 19.10400391 -0.10986328 C21.26678438 -0.11987167 23.42955149 -0.13348251 25.59228516 -0.15087891 C28.71520298 -0.17535544 31.83794067 -0.18653504 34.9609375 -0.1953125 C35.91551849 -0.20563507 36.87009949 -0.21595764 37.85360718 -0.22659302 C44.07175496 -0.2276138 49.98852237 0.32593843 56 2 C56.33 2.33 56.66 2.66 57 3 C59.32817964 3.36760731 61.6618385 3.70241581 64 4 C64 4.66 64 5.32 64 6 C65.65 6 67.3 6 69 6 C69 6.66 69 7.32 69 8 C65.34220705 7.46962002 61.79676141 6.71765828 58.21875 5.80859375 C36.65643898 0.52069821 13.64883854 -0.56747795 -8 5 C-9.06347656 5.27336182 -9.06347656 5.27336182 -10.1484375 5.55224609 C-47.61242566 15.38654299 -77.26291674 37.79973824 -96.90576172 71.11767578 C-102.8072687 81.26953183 -106.77664337 91.74595973 -110 103 C-110.21462891 103.7415332 -110.42925781 104.48306641 -110.65039062 105.24707031 C-118.03568578 132.00997325 -115.39557957 161.43189335 -105.85546875 187.2265625 C-105 190 -105 190 -106 192 C-108 191 -108 191 -108.9296875 188.91015625 C-114.20566357 173.01682338 -116.66830239 158.15050893 -116.52148438 141.40478516 C-116.50001539 138.50208053 -116.5214262 135.6018497 -116.546875 132.69921875 C-116.56527284 119.93544511 -115.77100613 107.06646154 -110.80664062 95.13085938 C-110.40735352 94.07608398 -110.40735352 94.07608398 -110 93 C-110.33 92.34 -110.66 91.68 -111 91 C-110.55011719 90.62230469 -110.10023437 90.24460937 -109.63671875 89.85546875 C-107.56424776 87.5060088 -106.82127918 85.26926656 -105.8125 82.3125 C-105.29623047 80.82169922 -105.29623047 80.82169922 -104.76953125 79.30078125 C-104.51558594 78.54152344 -104.26164062 77.78226562 -104 77 C-103.34 77 -102.68 77 -102 77 C-101.896875 76.29875 -101.79375 75.5975 -101.6875 74.875 C-100.90640997 71.60862353 -99.57941257 68.9528148 -98 66 C-97.34 66 -96.68 66 -96 66 C-95.74863281 65.12472656 -95.49726562 64.24945313 -95.23828125 63.34765625 C-92.47672518 55.88187218 -86.79617622 49.361463 -81 44 C-78.92085665 41.86029908 -76.84318506 39.71924114 -74.76953125 37.57421875 C-73 36 -73 36 -71 36 C-71 35.01 -71 34.02 -71 33 C-69.3203125 31.71875 -69.3203125 31.71875 -67.125 30.5 C-64.06209764 28.78740943 -63.01995371 28.02993057 -61 25 C-58.375 24.3125 -58.375 24.3125 -56 24 C-56 23.34 -56 22.68 -56 22 C-54.015625 20.65625 -54.015625 20.65625 -51 19 C-50.38576172 18.65839844 -49.77152344 18.31679688 -49.13867188 17.96484375 C-47.01781251 16.79316591 -44.88530102 15.64512603 -42.75 14.5 C-42.03714844 14.10941406 -41.32429688 13.71882813 -40.58984375 13.31640625 C-36.18678375 10.96017414 -31.84078501 9.13153907 -27.07006836 7.65063477 C-24.95225028 6.98499198 -22.88647374 6.22828829 -20.8125 5.4375 C-20.15507812 5.19257812 -19.49765625 4.94765625 -18.8203125 4.6953125 C-17.26311579 4.10050346 -15.72315957 3.4608896 -14.1875 2.8125 C-9.47221283 1.61056406 -4.83957195 1.84499592 0 2 C0 1.34 0 0.68 0 0 Z " fill="#E59D3B" transform="translate(151,35)"/>
<path d="M0 0 C-1.32 0.33 -2.64 0.66 -4 1 C-4 0.34 -4 -0.32 -4 -1 C-5.32 -1 -6.64 -1 -8 -1 C-8 -1.66 -8 -2.32 -8 -3 C-9.32 -3 -10.64 -3 -12 -3 C-12 -3.66 -12 -4.32 -12 -5 C-12.59167969 -5.10957031 -13.18335938 -5.21914062 -13.79296875 -5.33203125 C-14.97826172 -5.56986328 -14.97826172 -5.56986328 -16.1875 -5.8125 C-16.96480469 -5.96332031 -17.74210937 -6.11414063 -18.54296875 -6.26953125 C-21 -7 -21 -7 -23.33984375 -8.44140625 C-26.59969839 -10.35136514 -29.71977639 -11.18339067 -33.375 -12.125 C-34.64085937 -12.45757812 -35.90671875 -12.79015625 -37.2109375 -13.1328125 C-41.0008266 -14.05608938 -41.0008266 -14.05608938 -44.9140625 -14.5546875 C-48 -15 -48 -15 -49 -16 C-51.04882197 -16.09996094 -53.10108569 -16.13080946 -55.15234375 -16.1328125 C-56.40337891 -16.13410156 -57.65441406 -16.13539062 -58.94335938 -16.13671875 C-60.26142578 -16.13285156 -61.57949219 -16.12898438 -62.9375 -16.125 C-64.25169922 -16.12886719 -65.56589844 -16.13273437 -66.91992188 -16.13671875 C-68.17224609 -16.13542969 -69.42457031 -16.13414063 -70.71484375 -16.1328125 C-72.44915649 -16.13112061 -72.44915649 -16.13112061 -74.21850586 -16.12939453 C-76.95718631 -16.19022637 -76.95718631 -16.19022637 -79 -15 C-82.04838667 -14.72367142 -85.09654869 -14.55341702 -88.15234375 -14.37890625 C-91.19729591 -14.18632627 -91.19729591 -14.18632627 -94 -12 C-95.69477439 -11.58578198 -97.40601236 -11.23569173 -99.125 -10.9375 C-102.36108392 -10.58395374 -102.36108392 -10.58395374 -105 -9 C-107.67058851 -8.85884839 -110.32432238 -8.95752893 -113 -9 C-80.8657869 -30.42280873 -30.45040488 -18.35482739 0 0 Z " fill="#E38F38" transform="translate(257,88)"/>
<path d="M0 0 C3.3 0.33 6.6 0.66 10 1 C10 1.66 10 2.32 10 3 C11.2684375 2.938125 11.2684375 2.938125 12.5625 2.875 C16.96713306 3.03516847 20.76729545 4.27977273 24.9375 5.625 C27.28718207 6.13255135 27.28718207 6.13255135 30.875 5.8125 C35.38047859 5.71969052 37.53464877 7.22771902 41 10 C40.34 10.99 39.68 11.98 39 13 C37.12060547 13.34057617 37.12060547 13.34057617 34.8671875 13.29296875 C34.06152344 13.28330078 33.25585938 13.27363281 32.42578125 13.26367188 C31.58402344 13.23853516 30.74226563 13.21339844 29.875 13.1875 C29.02550781 13.17396484 28.17601562 13.16042969 27.30078125 13.14648438 C25.20025163 13.11108219 23.10004707 13.05727401 21 13 C21 12.34 21 11.68 21 11 C20.10539062 11.02320313 19.21078125 11.04640625 18.2890625 11.0703125 C9.45842441 11.20211307 0.9363433 11.27341562 -7 7 C-7 6.34 -7 5.68 -7 5 C-5.73027344 5.28875 -4.46054688 5.5775 -3.15234375 5.875 C7.42397459 8.18818307 17.16386597 9.59106186 28 9 C27.40050537 8.86424561 26.80101074 8.72849121 26.18334961 8.58862305 C23.43312399 7.96175094 20.6853483 7.32470868 17.9375 6.6875 C16.99455078 6.47416016 16.05160156 6.26082031 15.08007812 6.04101562 C9.76436977 4.80006629 4.93722697 3.33508238 0 1 C0 0.67 0 0.34 0 0 Z " fill="#D7663F" transform="translate(143,302)"/>
<path d="M0 0 C1.12472368 3.37417103 0.87319488 4.17765895 -0.14453125 7.46484375 C-0.40943359 8.34849609 -0.67433594 9.23214844 -0.94726562 10.14257812 C-1.23279297 11.06490234 -1.51832031 11.98722656 -1.8125 12.9375 C-5.79812371 25.85092083 -7.41286746 37.9704966 -7.375 51.5 C-7.37478851 52.20043427 -7.37457703 52.90086853 -7.37435913 53.62252808 C-7.32499891 70.06369306 -4.55091711 84.82713907 1.14453125 100.2265625 C2 103 2 103 1 105 C-1 104 -1 104 -1.9296875 101.91015625 C-7.20566357 86.01682338 -9.66830239 71.15050893 -9.52148438 54.40478516 C-9.50001539 51.50208053 -9.5214262 48.6018497 -9.546875 45.69921875 C-9.56527284 32.93544511 -8.77100613 20.06646154 -3.80664062 8.13085938 C-3.54044922 7.42767578 -3.27425781 6.72449219 -3 6 C-3.33 5.34 -3.66 4.68 -4 4 C-2.68 2.68 -1.36 1.36 0 0 Z " fill="#E29942" transform="translate(44,122)"/>
<path d="M0 0 C1.99279829 -0.00959229 3.98545548 -0.04073135 5.97802734 -0.07226562 C13.34705746 -0.10206959 19.20728738 0.39793387 26.02880859 3.24023438 C22.78238354 4.18417132 20.49780766 4.06631904 17.15722656 3.515625 C-9.02374375 0.12813538 -33.3507339 6.46849322 -54.97119141 21.24023438 C-56.31247117 22.56557363 -57.64854255 23.89630151 -58.97119141 25.24023438 C-59.63119141 25.24023438 -60.29119141 25.24023438 -60.97119141 25.24023438 C-60.47619141 23.75523438 -60.47619141 23.75523438 -59.97119141 22.24023438 C-59.31119141 22.24023438 -58.65119141 22.24023438 -57.97119141 22.24023438 C-57.97119141 21.58023438 -57.97119141 20.92023438 -57.97119141 20.24023438 C-53.61825023 16.24023438 -53.61825023 16.24023438 -49.97119141 16.24023438 C-49.97119141 15.58023438 -49.97119141 14.92023438 -49.97119141 14.24023438 C-47.5055622 13.00741977 -45.03977193 11.77495621 -42.57275391 10.54492188 C-40.61447644 9.56284279 -38.66546218 8.56225958 -36.72119141 7.55273438 C-31.66831756 5.14113549 -27.59786301 3.97229763 -21.97119141 4.24023438 C-21.97119141 3.58023438 -21.97119141 2.92023438 -21.97119141 2.24023438 C-21.0140625 2.14935547 -21.0140625 2.14935547 -20.03759766 2.05664062 C-19.21130859 1.97285156 -18.38501953 1.8890625 -17.53369141 1.80273438 C-16.70998047 1.72152344 -15.88626953 1.6403125 -15.03759766 1.55664062 C-4.96573247 0.01444577 -4.96573247 0.01444577 0 0 Z " fill="#DF8D42" transform="translate(194.97119140625,98.759765625)"/>
<path d="M0 0 C2 2 2 2 2.24291992 5.04101562 C2.23675659 6.95430664 2.23675659 6.95430664 2.23046875 8.90625 C2.22978142 9.92700623 2.22978142 9.92700623 2.2290802 10.96838379 C2.22605852 12.40748843 2.21817466 13.84658983 2.20581055 15.28564453 C2.1875717 17.49132851 2.18530075 19.69659229 2.18554688 21.90234375 C2.14753687 32.70492626 2.14753687 32.70492626 1 35 C1.020625 36.134375 1.04125 37.26875 1.0625 38.4375 C1 42 1 42 -1 45 C-1.38499891 46.65549531 -1.72793135 48.3222433 -2 50 C-2.66 50 -3.32 50 -4 50 C-4.1546875 51.2684375 -4.1546875 51.2684375 -4.3125 52.5625 C-5.94499255 60.72496275 -10.41542198 68.13355247 -15 75 C-16.485 75.99 -16.485 75.99 -18 77 C-17.03025772 72.5391855 -15.62131399 69.18532998 -13.1875 65.3125 C-0.44167032 44.82591035 0.35544478 23.39100045 0 0 Z " fill="#D55A39" transform="translate(295,181)"/>
<path d="M0 0 C1.00601584 3.13848605 0.9483351 5.1375845 0.125 8.3125 C-0.58861324 11.21005712 -1.19005776 14.03877891 -1.5625 17 C-2 20 -2 20 -3 21 C-5.21097839 28.9078789 -5.18686973 36.98059417 -5.1875 45.125 C-5.1882251 46.15705566 -5.1889502 47.18911133 -5.18969727 48.25244141 C-5.36372451 53.29000571 -5.36372451 53.29000571 -4 58 C-3.92907158 60.2072923 -3.91584975 62.41667452 -3.9375 64.625 C-3.94652344 65.81351562 -3.95554687 67.00203125 -3.96484375 68.2265625 C-3.97644531 69.14179688 -3.98804687 70.05703125 -4 71 C-4.33 71 -4.66 71 -5 71 C-9.9232679 46.73532251 -9.06223804 23.28223921 0 0 Z " fill="#E5A463" transform="translate(77,147)"/>
<path d="M0 0 C10.08816269 15.13224404 10.55825857 37.50789824 10 55 C9.67 55 9.34 55 9 55 C8.82984375 53.99582031 8.6596875 52.99164063 8.484375 51.95703125 C7.07885379 43.93856723 5.35937919 36.30496334 2.76953125 28.57421875 C2 26 2 26 2 23 C2.66 22.67 3.32 22.34 4 22 C3.5999903 18.1332396 3.23032984 14.69098952 2 11 C0.76967016 7.30901048 0.4000097 3.8667604 0 0 Z " fill="#FCE4D4" transform="translate(303,123)"/>
<path d="M0 0 C0.84046875 -0.00128906 1.6809375 -0.00257812 2.546875 -0.00390625 C3.87332031 0.00189453 3.87332031 0.00189453 5.2265625 0.0078125 C6.103125 0.00394531 6.9796875 0.00007813 7.8828125 -0.00390625 C9.14738281 -0.00197266 9.14738281 -0.00197266 10.4375 0 C11.2114209 0.00112793 11.9853418 0.00225586 12.78271484 0.00341797 C14.8515625 0.1328125 14.8515625 0.1328125 17.8515625 1.1328125 C19.91049871 1.35607064 21.97389903 1.53987009 24.0390625 1.6953125 C25.12574219 1.77910156 26.21242188 1.86289063 27.33203125 1.94921875 C28.57919922 2.04009766 28.57919922 2.04009766 29.8515625 2.1328125 C29.8515625 2.7928125 29.8515625 3.4528125 29.8515625 4.1328125 C30.8415625 4.4628125 31.8315625 4.7928125 32.8515625 5.1328125 C31.68882812 4.9884375 30.52609375 4.8440625 29.328125 4.6953125 C3.51805259 1.63932162 -19.37764829 4.27285054 -44.1484375 12.1328125 C-44.1484375 11.4728125 -44.1484375 10.8128125 -44.1484375 10.1328125 C-40.4375 8.89583333 -36.7265625 7.65885417 -33.015625 6.421875 C-32.36561523 6.2043457 -31.71560547 5.98681641 -31.04589844 5.76269531 C-29.27383132 5.17443834 -27.49646133 4.60222334 -25.71875 4.03125 C-23.24682262 3.37592482 -23.24682262 3.37592482 -22.1484375 2.1328125 C-18.50890554 1.86210351 -14.87600226 1.68635733 -11.23046875 1.52734375 C-7.04786514 1.32140911 -4.03919147 0.00590402 0 0 Z " fill="#FEF4DD" transform="translate(186.1484375,66.8671875)"/>
<path d="M0 0 C0.66 0.33 1.32 0.66 2 1 C1.68977905 1.90709717 1.68977905 1.90709717 1.37329102 2.83251953 C0.43154973 5.59506641 -0.50302775 8.35998623 -1.4375 11.125 C-1.76298828 12.07632813 -2.08847656 13.02765625 -2.42382812 14.0078125 C-5.39414424 22.82689541 -6.1592009 30.47015571 -6.125 39.75 C-6.12886719 40.78382813 -6.13273437 41.81765625 -6.13671875 42.8828125 C-6.12861727 49.31538731 -5.77911364 55.61446271 -5 62 C-9.6627907 56.12082911 -9.19242974 50.91887758 -9.1875 43.6875 C-9.18741943 42.60839355 -9.18733887 41.52928711 -9.18725586 40.41748047 C-9.049704 21.099408 -9.049704 21.099408 -6 15 C-5.34 15 -4.68 15 -4 15 C-4.0825 14.195625 -4.165 13.39125 -4.25 12.5625 C-3.91706018 7.81810753 -2.09835476 4.21544483 0 0 Z " fill="#E0873E" transform="translate(108,156)"/>
<path d="M0 0 C0 0.66 0 1.32 0 2 C-1.0725 2.598125 -2.145 3.19625 -3.25 3.8125 C-5.43255919 5.04211081 -7.24861863 6.2059983 -9.1875 7.8125 C-11 9 -11 9 -13.25 8.6875 C-13.8275 8.460625 -14.405 8.23375 -15 8 C-15.185625 8.5775 -15.37125 9.155 -15.5625 9.75 C-17.32070044 12.50196591 -19.42273982 13.49829267 -22.265625 14.99609375 C-24.55609944 16.32188639 -26.16704995 18.10595161 -28 20 C-29.66279327 21.0064275 -31.32983484 22.00585407 -33 23 C-37.37809723 26.30591015 -40.20182021 29.37224112 -43 34 C-43.99 33.67 -44.98 33.34 -46 33 C-44.625 31 -44.625 31 -43 29 C-42.34 29 -41.68 29 -41 29 C-40.67 28.01 -40.34 27.02 -40 26 C-31.66901556 17.17758108 -12.63454205 0 0 0 Z " fill="#E4993E" transform="translate(144,79)"/>
<path d="M0 0 C3.36338044 3.36338044 4 6.28835716 4 11 C4.66 11 5.32 11 6 11 C7.61597612 16.88677015 8.62223831 22.73973447 9.48828125 28.78125 C9.92651235 31.53775706 10.5157225 34.16985572 11.1875 36.875 C12.56357518 43.43031879 12.05309954 50.4181279 11 57 C10.01 57.495 10.01 57.495 9 58 C8.96261719 56.69289062 8.92523438 55.38578125 8.88671875 54.0390625 C8.31510094 37.3726345 6.36575862 21.97759829 0.98828125 6.16015625 C0 3 0 3 0 0 Z " fill="#DA6235" transform="translate(304,123)"/>
<path d="M0 0 C0.66 0.33 1.32 0.66 2 1 C1.67 1.66 1.34 2.32 1 3 C0.34 3 -0.32 3 -1 3 C-1 3.66 -1 4.32 -1 5 C-1.66 5 -2.32 5 -3 5 C-3.2475 5.61875 -3.495 6.2375 -3.75 6.875 C-5.20628639 9.35068687 -6.37812506 9.95125002 -9 11 C-9 11.66 -9 12.32 -9 13 C-9.45117188 13.44214844 -9.90234375 13.88429687 -10.3671875 14.33984375 C-12.27547584 16.28008907 -13.07793615 18.06026474 -14.125 20.5625 C-14.45757812 21.34753906 -14.79015625 22.13257813 -15.1328125 22.94140625 C-15.56207031 23.96041016 -15.56207031 23.96041016 -16 25 C-16.33 25.66 -16.66 26.32 -17 27 C-17.15175549 28.59262066 -17.24900325 30.19064856 -17.31640625 31.7890625 C-17.35830078 32.73007813 -17.40019531 33.67109375 -17.44335938 34.640625 C-17.48267578 35.62546875 -17.52199219 36.6103125 -17.5625 37.625 C-17.60568359 38.61757812 -17.64886719 39.61015625 -17.69335938 40.6328125 C-17.79961069 43.08839838 -17.90164964 45.54408703 -18 48 C-21.91409553 40.69791804 -20.57676244 32.06158799 -18.4375 24.3125 C-14.83680706 13.86293658 -8.4708122 6.87653235 0 0 Z " fill="#DF8951" transform="translate(234,116)"/>
<path d="M0 0 C1.37520651 3.82001808 0.74051523 7.07526927 0 11 C-0.33 11.33 -0.66 11.66 -1 12 C-1.10003962 14.0136276 -1.13081069 16.03076487 -1.1328125 18.046875 C-1.13410156 19.284375 -1.13539062 20.521875 -1.13671875 21.796875 C-1.13285156 23.10140625 -1.12898438 24.4059375 -1.125 25.75 C-1.12886719 27.0390625 -1.13273437 28.328125 -1.13671875 29.65625 C-1.13542969 30.89890625 -1.13414063 32.1415625 -1.1328125 33.421875 C-1.13168457 34.56237305 -1.13055664 35.70287109 -1.12939453 36.87792969 C-1.01190675 39.7127103 -0.61296766 42.23878962 0 45 C0.06371368 46.60303627 0.08644214 48.20837672 0.0625 49.8125 C0.05347656 50.60269531 0.04445313 51.39289063 0.03515625 52.20703125 C0.01775391 53.09455078 0.01775391 53.09455078 0 54 C-7.0186426 43.4720361 -5.58129273 22.82799206 -3.359375 10.88671875 C-2.68815467 8.19196654 -1.947892 5.60793084 -1 3 C-0.67 2.01 -0.34 1.02 0 0 Z " fill="#FEF0D6" transform="translate(105,169)"/>
<path d="M0 0 C0.33 0 0.66 0 1 0 C1.0270043 1.45823212 1.04639787 2.91660675 1.0625 4.375 C1.07410156 5.18710938 1.08570313 5.99921875 1.09765625 6.8359375 C1 9 1 9 0 11 C-0.20418935 12.99651809 -0.36522296 14.99759821 -0.5 17 C-0.88888889 22.77777778 -0.88888889 22.77777778 -2 25 C-2.09629649 26.71662123 -2.13075026 28.43693118 -2.1328125 30.15625 C-2.13410156 31.17847656 -2.13539062 32.20070312 -2.13671875 33.25390625 C-2.13285156 34.32511719 -2.12898438 35.39632812 -2.125 36.5 C-2.12886719 37.57121094 -2.13273437 38.64242187 -2.13671875 39.74609375 C-2.13542969 40.76832031 -2.13414063 41.79054687 -2.1328125 42.84375 C-2.13168457 43.78412109 -2.13055664 44.72449219 -2.12939453 45.69335938 C-2.15132401 48.02769872 -2.15132401 48.02769872 -1 50 C-0.92883618 52.37402501 -0.91590915 54.75000677 -0.9375 57.125 C-0.94652344 58.40632813 -0.95554688 59.68765625 -0.96484375 61.0078125 C-0.97644531 61.99523437 -0.98804688 62.98265625 -1 64 C-1.33 64 -1.66 64 -2 64 C-3.87378727 54.81434549 -4.39499686 45.85852963 -4.375 36.5 C-4.3764502 35.80455078 -4.37790039 35.10910156 -4.37939453 34.39257812 C-4.37668073 22.57125035 -3.07834885 11.43386716 0 0 Z " fill="#FCECCC" transform="translate(40,138)"/>
<path d="M0 0 C0.66 1.32 1.32 2.64 2 4 C-1.87114403 8.92046512 -5.76936191 12.58778415 -11 16 C-11.70253906 16.48339844 -12.40507812 16.96679688 -13.12890625 17.46484375 C-24.31060719 25.10729327 -24.31060719 25.10729327 -29 27 C-29.99 26.67 -30.98 26.34 -32 26 C-31.26136719 25.59910156 -30.52273437 25.19820313 -29.76171875 24.78515625 C-18.70433602 18.58908791 -7.14882003 10.72323005 0 0 Z " fill="#D5553C" transform="translate(274,258)"/>
<path d="M0 0 C0.55123535 0.08564209 1.1024707 0.17128418 1.67041016 0.25952148 C15.78482564 2.41407202 29.72841278 3.62245582 44 4 C42 6 42 6 39.70922852 6.24291992 C38.77522217 6.23881104 37.84121582 6.23470215 36.87890625 6.23046875 C35.35233398 6.22756836 35.35233398 6.22756836 33.79492188 6.22460938 C32.72822266 6.21236328 31.66152344 6.20011719 30.5625 6.1875 C29.49966797 6.18685547 28.43683594 6.18621094 27.34179688 6.18554688 C19.42137729 6.1404591 19.42137729 6.1404591 16 5 C14.27204648 4.93197033 12.54164635 4.91504355 10.8125 4.9375 C9.91144531 4.94652344 9.01039063 4.95554687 8.08203125 4.96484375 C7.05142578 4.98224609 7.05142578 4.98224609 6 5 C5.67 4.34 5.34 3.68 5 3 C2.47266765 2.34444881 2.47266765 2.34444881 0 2 C0 1.34 0 0.68 0 0 Z " fill="#D75933" transform="translate(168,291)"/>
<path d="M0 0 C0.59683594 0.32871094 1.19367188 0.65742188 1.80859375 0.99609375 C4.26176364 2.34114529 6.72096661 3.6746768 9.18115234 5.00683594 C11.12393694 6.06767456 13.05572432 7.14721628 14.98828125 8.2265625 C24.10582453 13.25525617 32.98434285 17.09881256 43 20 C43 20.33 43 20.66 43 21 C37.30256233 21.33904545 33.42264704 20.3423191 28.3125 18.125 C27.66216797 17.85558594 27.01183594 17.58617187 26.34179688 17.30859375 C23.16951092 15.98276578 20.04885206 14.59003424 17 13 C17 12.34 17 11.68 17 11 C16.21625 10.855625 15.4325 10.71125 14.625 10.5625 C12 10 12 10 10 9 C10 8.34 10 7.68 10 7 C8.63875 6.5978125 8.63875 6.5978125 7.25 6.1875 C4.27008166 5.09868368 2.31409641 4.13608899 0 2 C0 1.34 0 0.68 0 0 Z " fill="#D97240" transform="translate(92,286)"/>
<path d="M0 0 C2.80983175 3.3450378 4.42067459 6.97167209 6 11 C6.25982666 11.65991943 6.51965332 12.31983887 6.78735352 12.99975586 C12.78599055 28.61200299 12.78599055 28.61200299 11 37 C10.67 37 10.34 37 10 37 C9.855625 35.865625 9.71125 34.73125 9.5625 33.5625 C9.38828522 30.19222799 9.38828522 30.19222799 8 29 C7.87625 27.80375 7.7525 26.6075 7.625 25.375 C7.29727387 22.37711176 6.69984976 19.98805441 5.4375 17.25 C4 14 4 14 4 10 C3.34 10 2.68 10 2 10 C0.39644899 6.49223216 -0.22036864 3.85645121 0 0 Z " fill="#D76B43" transform="translate(299,135)"/>
<path d="M0 0 C1.1653125 0.28875 2.330625 0.5775 3.53125 0.875 C17.12983802 4.02609784 30.08084638 4.46853702 44 4 C44 4.66 44 5.32 44 6 C39.91068318 6.05001046 35.82148859 6.08600357 31.73193359 6.10986328 C30.34518324 6.11982603 28.95845335 6.13340118 27.57177734 6.15087891 C8.17656601 6.38894287 8.17656601 6.38894287 0 2 C0 1.34 0 0.68 0 0 Z " fill="#DF6B44" transform="translate(136,307)"/>
<path d="M0 0 C0 0.66 0 1.32 0 2 C-4.38461538 5 -4.38461538 5 -7 5 C-7 5.66 -7 6.32 -7 7 C-7.99 7.33 -8.98 7.66 -10 8 C-10 7.34 -10 6.68 -10 6 C-10.825 6.45375 -11.65 6.9075 -12.5 7.375 C-21.89473684 11.73684211 -21.89473684 11.73684211 -26.5 10.125 C-26.995 9.75375 -27.49 9.3825 -28 9 C-23.87610598 7.60469751 -19.73346897 6.30928424 -15.5625 5.0625 C-10.8824183 3.63603674 -4.81547849 0 0 0 Z " fill="#DC5334" transform="translate(242,285)"/>
<path d="M0 0 C0.91265625 0.61875 0.91265625 0.61875 1.84375 1.25 C9.90357178 6.56000023 18.32765257 10.79434656 27 15 C28.33459595 15.66413543 29.66871582 16.32925068 31 17 C29.35 17.33 27.7 17.66 26 18 C26 17.34 26 16.68 26 16 C25.30261719 15.88269531 24.60523438 15.76539063 23.88671875 15.64453125 C20.70364771 14.93383203 17.83896469 13.90184546 14.8125 12.6875 C13.76707031 12.27886719 12.72164062 11.87023437 11.64453125 11.44921875 C8.73154884 9.85288718 8.24074784 8.9643483 7 6 C5.7625 5.505 5.7625 5.505 4.5 5 C1.48085275 3.7923411 1.25271027 2.87659396 0 0 Z " fill="#DA683A" transform="translate(136,273)"/>
<path d="M0 0 C13.14132063 1.24329326 24.68590859 7.55115869 36 14 C34.68 14.33 33.36 14.66 32 15 C32 14.34 32 13.68 32 13 C30.68 13 29.36 13 28 13 C28 12.34 28 11.68 28 11 C26.68 11 25.36 11 24 11 C24 10.34 24 9.68 24 9 C23.11248047 8.83564453 23.11248047 8.83564453 22.20703125 8.66796875 C17.47468591 7.71841169 14.13472206 6.52117199 10 4 C6.70026932 2.87625271 3.36156326 1.92035033 0 1 C0 0.67 0 0.34 0 0 Z " fill="#DC823D" transform="translate(221,74)"/>
<path d="M0 0 C1.32 0.33 2.64 0.66 4 1 C3.34 1 2.68 1 2 1 C1.61521484 1.88171875 1.61521484 1.88171875 1.22265625 2.78125 C-2.51296558 9.56026981 -9.86496011 13.61671904 -17 16 C-17.66 16 -18.32 16 -19 16 C-19 15.34 -19 14.68 -19 14 C-18.32453125 13.68546875 -17.6490625 13.3709375 -16.953125 13.046875 C-12.28782695 10.80861062 -8.48503153 8.92066047 -5 5 C-4.34 5 -3.68 5 -3 5 C-2.67 4.01 -2.34 3.02 -2 2 C-1.34 2 -0.68 2 0 2 C0 1.34 0 0.68 0 0 Z " fill="#D8653B" transform="translate(291,179)"/>
<path d="M0 0 C6.6 1.32 13.2 2.64 20 4 C20 4.33 20 4.66 20 5 C16.79168609 5.0292483 13.58340693 5.04688189 10.375 5.0625 C9.01955078 5.07506836 9.01955078 5.07506836 7.63671875 5.08789062 C2.97095711 5.10491895 -1.41013285 4.96829423 -6 4 C-6 3.67 -6 3.34 -6 3 C-4.02 3 -2.04 3 0 3 C0 2.01 0 1.02 0 0 Z " fill="#FDE6D6" transform="translate(156,307)"/>
<path d="M0 0 C3.41021743 0.78697325 6.68885166 1.87119943 10 3 C10 3.99 10 4.98 10 6 C3.59646678 6.2361959 -1.84629161 5.823321 -8 4 C-8 3.67 -8 3.34 -8 3 C-6.865625 2.87625 -5.73125 2.7525 -4.5625 2.625 C-3.386875 2.41875 -2.21125 2.2125 -1 2 C-0.67 1.34 -0.34 0.68 0 0 Z " fill="#FEF6EE" transform="translate(146,304)"/>
<path d="M0 0 C0.99 0.33 1.98 0.66 3 1 C2.18208984 1.76570313 2.18208984 1.76570313 1.34765625 2.546875 C-4.89499504 8.56543111 -9.96740709 14.96864678 -15 22 C-15.625 20.1875 -15.625 20.1875 -16 18 C-15.01 16.515 -15.01 16.515 -14 15 C-13.34 15 -12.68 15 -12 15 C-12 14.34 -12 13.68 -12 13 C-11.34 13 -10.68 13 -10 13 C-10 12.34 -10 11.68 -10 11 C-9.34 11 -8.68 11 -8 11 C-7.855625 10.38125 -7.71125 9.7625 -7.5625 9.125 C-7 7 -7 7 -6 5 C-5.34 5 -4.68 5 -4 5 C-3.67 4.01 -3.34 3.02 -3 2 C-2.01 2 -1.02 2 0 2 C0 1.34 0 0.68 0 0 Z " fill="#E38C3C" transform="translate(131,124)"/>
<path d="M0 0 C13.67040049 -0.28186393 26.79765546 0.00742313 40 4 C40 4.33 40 4.66 40 5 C37.8537974 4.85970581 35.70803782 4.71261836 33.5625 4.5625 C32.36753906 4.48128906 31.17257813 4.40007812 29.94140625 4.31640625 C27 4 27 4 26 3 C24.0769127 2.7714679 22.14639772 2.60481143 20.21484375 2.46484375 C19.04501953 2.37783203 17.87519531 2.29082031 16.66992188 2.20117188 C14.82237305 2.0706543 14.82237305 2.0706543 12.9375 1.9375 C11.70193359 1.84662109 10.46636719 1.75574219 9.19335938 1.66210938 C6.12918006 1.43732402 3.06475198 1.2168144 0 1 C0 0.67 0 0.34 0 0 Z " fill="#E19E5D" transform="translate(182,69)"/>
<path d="M0 0 C2.875 1.6875 2.875 1.6875 3.875 3.6875 C1.875 5.6875 1.875 5.6875 -0.00439453 5.91455078 C-0.74802246 5.90407715 -1.49165039 5.89360352 -2.2578125 5.8828125 C-3.06347656 5.87636719 -3.86914062 5.86992187 -4.69921875 5.86328125 C-5.54097656 5.84652344 -6.38273438 5.82976562 -7.25 5.8125 C-8.52423828 5.79896484 -8.52423828 5.79896484 -9.82421875 5.78515625 C-11.92459884 5.76155647 -14.02483444 5.72568483 -16.125 5.6875 C-16.125 5.0275 -16.125 4.3675 -16.125 3.6875 C-10.845 3.6875 -5.565 3.6875 -0.125 3.6875 C-0.125 3.0275 -0.125 2.3675 -0.125 1.6875 C-1.775 1.6875 -3.425 1.6875 -5.125 1.6875 C-5.455 1.0275 -5.785 0.3675 -6.125 -0.3125 C-3.125 -1.3125 -3.125 -1.3125 0 0 Z " fill="#DF5027" transform="translate(180.125,309.3125)"/>
<path d="M0 0 C1.48797799 3.86874278 0.60943689 6.26903265 -1 10 C-2.55637679 12.42217579 -4.26549938 14.7040104 -6 17 C-6.66 17.99 -7.32 18.98 -8 20 C-9 17 -9 17 -7.63671875 13.75 C-6.99713752 12.49477198 -6.34694394 11.24490771 -5.6875 10 C-5.36587891 9.3709375 -5.04425781 8.741875 -4.71289062 8.09375 C-3.2642423 5.28569247 -1.75427122 2.63140683 0 0 Z " fill="#E79335" transform="translate(87,127)"/>
<path d="M0 0 C0.33 0 0.66 0 1 0 C1.02505615 0.65597168 1.0501123 1.31194336 1.07592773 1.98779297 C1.1917326 4.95040183 1.31452886 7.91268031 1.4375 10.875 C1.47681641 11.90753906 1.51613281 12.94007813 1.55664062 14.00390625 C1.59853516 14.99003906 1.64042969 15.97617188 1.68359375 16.9921875 C1.72025146 17.90339355 1.75690918 18.81459961 1.79467773 19.75341797 C1.86577065 22.03483481 1.86577065 22.03483481 3 24 C3.07092842 26.2072923 3.08415025 28.41667452 3.0625 30.625 C3.05347656 31.81351563 3.04445313 33.00203125 3.03515625 34.2265625 C3.01775391 35.59941406 3.01775391 35.59941406 3 37 C2.67 37 2.34 37 2 37 C-0.07001397 28.91831075 -0.24065342 21.18425345 -0.125 12.875 C-0.11597656 11.63234375 -0.10695313 10.3896875 -0.09765625 9.109375 C-0.07429729 6.07270996 -0.04154283 3.03646147 0 0 Z " fill="#DF883D" transform="translate(70,181)"/>
<path d="M0 0 C0.66 0 1.32 0 2 0 C0.66206183 4.44648108 -1.09677079 8.2430743 -3.4375 12.25 C-4.03433594 13.28640625 -4.63117188 14.3228125 -5.24609375 15.390625 C-7 18 -7 18 -10 20 C-8.34653398 12.39405633 -4.27425351 6.41138026 0 0 Z " fill="#D95034" transform="translate(287,238)"/>
<path d="M0 0 C0.33 0 0.66 0 1 0 C1 1.98 1 3.96 1 6 C1.66 6 2.32 6 3 6 C3 11.94 3 17.88 3 24 C2.67 24 2.34 24 2 24 C1.49311395 21.45953542 0.99433126 18.91791124 0.5 16.375 C0.35691406 15.66214844 0.21382813 14.94929687 0.06640625 14.21484375 C-1.92896316 3.85792632 -1.92896316 3.85792632 0 0 Z " fill="#FDD7C0" transform="translate(310,154)"/>
<path d="M0 0 C3.83299196 3.78339687 7.53375029 7.66865297 11.1875 11.625 C11.72052734 12.19734375 12.25355469 12.7696875 12.80273438 13.359375 C15.08058703 15.82346718 17.13479331 18.20218996 19 21 C17.68 21 16.36 21 15 21 C13.94410931 19.36816893 12.9563874 17.69207001 12 16 C10.96445425 14.91121283 9.90016691 13.84922233 8.8125 12.8125 C7.884375 11.884375 6.95625 10.95625 6 10 C6 9.34 6 8.68 6 8 C5.34 8 4.68 8 4 8 C0 2.58823529 0 2.58823529 0 0 Z " fill="#DB7E42" transform="translate(61,255)"/>
<path d="M0 0 C3.28860286 3.28860286 3.05380838 6.9672921 3.09765625 11.42578125 C3.09106137 13.0547163 3.07921288 14.68363734 3.0625 16.3125 C3.05798828 17.14845703 3.05347656 17.98441406 3.04882812 18.84570312 C3.03710548 20.89716649 3.01917203 22.94859273 3 25 C2.67 25 2.34 25 2 25 C1.93941406 23.98679688 1.87882812 22.97359375 1.81640625 21.9296875 C1.73193296 20.57811486 1.64728843 19.22655291 1.5625 17.875 C1.52318359 17.20984375 1.48386719 16.5446875 1.44335938 15.859375 C1.187848 11.84981183 0.73217587 7.95005804 0 4 C-1.32 4.99 -2.64 5.98 -4 7 C-4.66 6.67 -5.32 6.34 -6 6 C-4.02 4.02 -2.04 2.04 0 0 Z " fill="#F5CDBA" transform="translate(293,181)"/>
<path d="M0 0 C0.99 0.495 0.99 0.495 2 1 C2.625 4.0625 2.625 4.0625 3 7 C3.66 7 4.32 7 5 7 C5 8.32 5 9.64 5 11 C5.66 11 6.32 11 7 11 C7 11.66 7 12.32 7 13 C7.66 13 8.32 13 9 13 C10.32 15.31 11.64 17.62 13 20 C12.01 20 11.02 20 10 20 C5.27079682 14.65815005 0 7.36486729 0 0 Z " fill="#D9753E" transform="translate(216,164)"/>
<path d="M0 0 C0.66 0 1.32 0 2 0 C3.97094808 4.92737019 4.1799928 8.78020872 4 14 C3.34 12.68 2.68 11.36 2 10 C1.34 10.99 0.68 11.98 0 13 C-0.98248196 8.94726192 -1.16017882 5.16464926 -1 1 C-0.67 0.67 -0.34 0.34 0 0 Z " fill="#FAE6D8" transform="translate(308,146)"/>
<path d="M0 0 C1.98 0 3.96 0 6 0 C6 0.66 6 1.32 6 2 C7.32 2 8.64 2 10 2 C10 2.66 10 3.32 10 4 C10.556875 4.103125 11.11375 4.20625 11.6875 4.3125 C14.4769101 5.14178408 16.6139064 6.34299056 19 8 C19 8.66 19 9.32 19 10 C14.75707468 8.39369175 10.72974893 6.4231838 6.6875 4.375 C6.04232422 4.05015625 5.39714844 3.7253125 4.73242188 3.390625 C3.15402459 2.59558044 1.57688306 1.79804366 0 1 C0 0.67 0 0.34 0 0 Z " fill="#E18F45" transform="translate(230,47)"/>
<path d="M0 0 C0.33 0 0.66 0 1 0 C1.0270043 1.45823212 1.04639787 2.91660675 1.0625 4.375 C1.07410156 5.18710938 1.08570313 5.99921875 1.09765625 6.8359375 C1 9 1 9 0 11 C-0.27571479 14.08100341 -0.44663533 17.16171476 -0.62109375 20.25 C-1 23 -1 23 -3 25 C-3.48032656 16.28296246 -2.07313419 8.45295786 0 0 Z " fill="#FFF6DE" transform="translate(40,138)"/>
<path d="M0 0 C0.66 0 1.32 0 2 0 C1.7834375 0.85658203 1.7834375 0.85658203 1.5625 1.73046875 C-0.52116147 10.83201783 -0.71870909 19.8152186 1 29 C-1 28 -1 28 -2 25 C-3.08750337 16.03816665 -3.76369071 8.4306672 0 0 Z " fill="#FEF4E1" transform="translate(215,137)"/>
<path d="M0 0 C2.475 0.495 2.475 0.495 5 1 C5 1.66 5 2.32 5 3 C5.66 3.0825 6.32 3.165 7 3.25 C10.99039163 4.24759791 14.38549643 6.07166683 18 8 C18 8.66 18 9.32 18 10 C11.90375311 8.3523657 6.33066806 5.34188389 1 2 C0.67 1.34 0.34 0.68 0 0 Z " fill="#DB6E41" transform="translate(125,292)"/>
<path d="M0 0 C3.65822202 3.5473668 7.01663945 7.27699731 10.3515625 11.12890625 C12.15332526 13.17403506 14.033852 15.11249792 16 17 C15.34 17.33 14.68 17.66 14 18 C14 17.34 14 16.68 14 16 C13.01 16 12.02 16 11 16 C10.34 15.01 9.68 14.02 9 13 C8.01 12.34 7.02 11.68 6 11 C6.33 10.34 6.66 9.68 7 9 C6.34 9 5.68 9 5 9 C3.7109375 7.5390625 3.7109375 7.5390625 2.375 5.625 C1.92898437 4.99851562 1.48296875 4.37203125 1.0234375 3.7265625 C0 2 0 2 0 0 Z " fill="#DC7B48" transform="translate(118,254)"/>
<path d="M0 0 C3.16939596 3.07035233 6.20577041 6.24671034 9.1875 9.5 C9.86167969 10.2321875 10.53585937 10.964375 11.23046875 11.71875 C13.05434368 14.07005895 14.03806462 16.19805491 15 19 C11.24623848 17.74874616 10.75926711 16.4347596 9 13 C9 12.34 9 11.68 9 11 C8.34 11 7.68 11 7 11 C5.2734375 9.1015625 5.2734375 9.1015625 3.375 6.625 C2.42753906 5.40683594 2.42753906 5.40683594 1.4609375 4.1640625 C0 2 0 2 0 0 Z " fill="#D87840" transform="translate(278,106)"/>
<path d="M0 0 C0 0.66 0 1.32 0 2 C-0.60585937 2.15855469 -1.21171875 2.31710938 -1.8359375 2.48046875 C-8.32134705 4.28640587 -14.07837438 6.81240153 -20 10 C-20.66 9.34 -21.32 8.68 -22 8 C-19.93824636 7.040062 -17.87556531 6.08211576 -15.8125 5.125 C-14.66394531 4.59132813 -13.51539062 4.05765625 -12.33203125 3.5078125 C-4.58031088 0 -4.58031088 0 0 0 Z " fill="#FDEDC5" transform="translate(132,43)"/>
<path d="M0 0 C0.66 1.32 1.32 2.64 2 4 C0.02 6.31 -1.96 8.62 -4 11 C-5 8 -5 8 -4.2578125 6.2109375 C-1.11111111 1.11111111 -1.11111111 1.11111111 0 0 Z M-8 11 C-7.01 11.33 -6.02 11.66 -5 12 C-6.98 13.32 -8.96 14.64 -11 16 C-9.125 12.125 -9.125 12.125 -8 11 Z " fill="#E24B30" transform="translate(274,258)"/>
<path d="M0 0 C1.00601584 3.13848605 0.9483351 5.1375845 0.125 8.3125 C-0.59511054 11.21694584 -1.16889271 14.02616603 -1.5 17 C-1.665 17.99 -1.83 18.98 -2 20 C-2.66 20.33 -3.32 20.66 -4 21 C-3.66569599 13.43781278 -3.12892533 6.93805182 0 0 Z " fill="#E6943E" transform="translate(77,147)"/>
<path d="M0 0 C-6.34445951 3.98794598 -10.5717674 5.2518045 -18 5 C-15.17770487 3.11846991 -12.72109829 1.99965295 -9.5625 0.8125 C-8.61503906 0.44769531 -7.66757813 0.08289063 -6.69140625 -0.29296875 C-3.92916783 -1.01860758 -2.63633262 -0.97849698 0 0 Z " fill="#E59C49" transform="translate(162,74)"/>
<path d="M0 0 C0.66 0 1.32 0 2 0 C2.26554687 0.88042969 2.53109375 1.76085937 2.8046875 2.66796875 C3.33449219 4.41013672 3.33449219 4.41013672 3.875 6.1875 C4.22304688 7.33605469 4.57109375 8.48460937 4.9296875 9.66796875 C5.91147399 12.93247175 5.91147399 12.93247175 7.1953125 15.67578125 C8.11529171 18.33300276 7.77931812 19.37334526 7 22 C5.82538445 18.89878289 4.66169544 15.79357759 3.5 12.6875 C3.16613281 11.80642578 2.83226562 10.92535156 2.48828125 10.01757812 C2.17246094 9.17001953 1.85664062 8.32246094 1.53125 7.44921875 C1.23798828 6.66893311 0.94472656 5.88864746 0.64257812 5.0847168 C0 3 0 3 0 0 Z " fill="#FEF3DD" transform="translate(41,210)"/>
<path d="M0 0 C0.66 0.33 1.32 0.66 2 1 C1.67 1.66 1.34 2.32 1 3 C0.34 3 -0.32 3 -1 3 C-1 3.66 -1 4.32 -1 5 C-1.66 5 -2.32 5 -3 5 C-3.2475 5.61875 -3.495 6.2375 -3.75 6.875 C-5.20628639 9.35068687 -6.37812506 9.95125002 -9 11 C-8.46324097 7.14896699 -6.88399077 5.68202413 -3.9375 3.25 C-3.20402344 2.63640625 -2.47054687 2.0228125 -1.71484375 1.390625 C-1.14894531 0.93171875 -0.58304688 0.4728125 0 0 Z " fill="#E4782F" transform="translate(234,116)"/>
<path d="M0 0 C0 0.33 0 0.66 0 1 C-7.19066967 3.18846468 -14.43699439 5.18840228 -22 5 C-15.47004862 0.64669908 -7.71411784 -0.43664818 0 0 Z " fill="#FBE5C4" transform="translate(186,102)"/>
<path d="M0 0 C1.32 0.33 2.64 0.66 4 1 C3.67 1.66 3.34 2.32 3 3 C2.34 3 1.68 3 1 3 C1 3.66 1 4.32 1 5 C1.99 5.33 2.98 5.66 4 6 C-4.57142857 5.14285714 -4.57142857 5.14285714 -8 3 C-6.865625 2.87625 -5.73125 2.7525 -4.5625 2.625 C-3.386875 2.41875 -2.21125 2.2125 -1 2 C-0.67 1.34 -0.34 0.68 0 0 Z " fill="#FCE7D7" transform="translate(146,304)"/>
<path d="M0 0 C0.66 0 1.32 0 2 0 C2 0.66 2 1.32 2 2 C2.66 2 3.32 2 4 2 C8.57142857 9.28571429 8.57142857 9.28571429 8 14 C5.66635648 11.07096942 3.95039164 8.11431797 2.3125 4.75 C1.65701172 3.41195312 1.65701172 3.41195312 0.98828125 2.046875 C0.66214844 1.37140625 0.33601563 0.6959375 0 0 Z " fill="#FEEDDD" transform="translate(295,127)"/>
<path d="M0 0 C0.66 0.33 1.32 0.66 2 1 C0.35 5.95 -1.3 10.9 -3 16 C-3.33 16 -3.66 16 -4 16 C-4.5326514 9.741346 -2.81849506 5.54891215 0 0 Z " fill="#E0934A" transform="translate(108,156)"/>
<path d="M0 0 C2.31 0.33 4.62 0.66 7 1 C7 1.66 7 2.32 7 3 C7.804375 3.268125 8.60875 3.53625 9.4375 3.8125 C10.283125 4.204375 11.12875 4.59625 12 5 C12.33 5.99 12.66 6.98 13 8 C8.27626146 6.37621488 4.05818166 3.89006982 0 1 C0 0.67 0 0.34 0 0 Z " fill="#FCECD7" transform="translate(250,84)"/>
<path d="M0 0 C0.33 0.66 0.66 1.32 1 2 C-0.3125 4.625 -0.3125 4.625 -2 7 C-2.66 7 -3.32 7 -4 7 C-4.103125 7.598125 -4.20625 8.19625 -4.3125 8.8125 C-5.08876455 11.28243264 -6.07088921 12.32251235 -8 14 C-8 9.96618977 -6.40426438 8.50566363 -4 5.3125 C-3.2575 4.31863281 -2.515 3.32476562 -1.75 2.30078125 C-1.1725 1.54152344 -0.595 0.78226562 0 0 Z " fill="#E09B45" transform="translate(97,113)"/>
<path d="M0 0 C0.66 0.33 1.32 0.66 2 1 C0.68 3.31 -0.64 5.62 -2 8 C-3.65 8 -5.3 8 -7 8 C-6.02133662 6.85373678 -5.04205413 5.70800212 -4.0625 4.5625 C-3.51722656 3.92441406 -2.97195312 3.28632812 -2.41015625 2.62890625 C-1.63204305 1.73008851 -0.84063472 0.84063472 0 0 Z " fill="#FDF2D6" transform="translate(81,71)"/>
<path d="M0 0 C2.875 1.6875 2.875 1.6875 3.875 3.6875 C3.215 4.3475 2.555 5.0075 1.875 5.6875 C1.215 5.6875 0.555 5.6875 -0.125 5.6875 C-0.125 4.3675 -0.125 3.0475 -0.125 1.6875 C-1.775 1.6875 -3.425 1.6875 -5.125 1.6875 C-5.455 1.0275 -5.785 0.3675 -6.125 -0.3125 C-3.125 -1.3125 -3.125 -1.3125 0 0 Z " fill="#E7552D" transform="translate(180.125,309.3125)"/>
<path d="M0 0 C2.00993705 3.01490557 2.72623341 5.2149927 3.625 8.6875 C3.88539062 9.68136719 4.14578125 10.67523438 4.4140625 11.69921875 C4.60742188 12.45847656 4.80078125 13.21773437 5 14 C4.01 13.67 3.02 13.34 2 13 C0.01165038 8.60470084 -0.19118486 4.77962147 0 0 Z " fill="#E29651" transform="translate(41,213)"/>
<path d="M0 0 C2.97 0.495 2.97 0.495 6 1 C4.02 1.99 4.02 1.99 2 3 C4.97 3.495 4.97 3.495 8 4 C8 4.33 8 4.66 8 5 C3.1666528 5.08333357 -1.23692563 4.95261487 -6 4 C-6 3.67 -6 3.34 -6 3 C-4.02 3 -2.04 3 0 3 C0 2.01 0 1.02 0 0 Z " fill="#F4C5AF" transform="translate(156,307)"/>
<path d="M0 0 C2.4375 0.375 2.4375 0.375 5 1 C5.33 1.66 5.66 2.32 6 3 C6.825 3.309375 7.65 3.61875 8.5 3.9375 C9.7375 4.4634375 9.7375 4.4634375 11 5 C11.33 5.99 11.66 6.98 12 8 C7.44328408 6.48109469 3.68276708 4.04597738 0 1 C0 0.67 0 0.34 0 0 Z " fill="#FCE5D1" transform="translate(91,284)"/>
<path d="M0 0 C8.44646925 6.15034169 8.44646925 6.15034169 12 10 C7.15853891 8.53289058 3.44051028 5.6487256 0 2 C0 1.34 0 0.68 0 0 Z " fill="#D87840" transform="translate(80,276)"/>
<path d="M0 0 C0.66 0.33 1.32 0.66 2 1 C0.75 3 0.75 3 -1 5 C-2.32 5 -3.64 5 -5 5 C-5 5.66 -5 6.32 -5 7 C-6.65 7.33 -8.3 7.66 -10 8 C-6.97727468 4.74475735 -3.74281699 2.38179263 0 0 Z " fill="#FCF0CE" transform="translate(104,54)"/>
<path d="M0 0 C1.32 0.33 2.64 0.66 4 1 C3.34 1 2.68 1 2 1 C1.566875 1.928125 1.566875 1.928125 1.125 2.875 C0 5 0 5 -2 7 C-2.99 7 -3.98 7 -5 7 C-5 6.34 -5 5.68 -5 5 C-4.34 5 -3.68 5 -3 5 C-2.67 4.01 -2.34 3.02 -2 2 C-1.34 2 -0.68 2 0 2 C0 1.34 0 0.68 0 0 Z " fill="#DB6131" transform="translate(291,179)"/>
<path d="M0 0 C1.98 0.99 1.98 0.99 4 2 C4 2.99 4 3.98 4 5 C4.66 5 5.32 5 6 5 C6 5.99 6 6.98 6 8 C6.66 8.33 7.32 8.66 8 9 C7.67 9.99 7.34 10.98 7 12 C5.83061933 10.18924982 4.66456267 8.37635257 3.5 6.5625 C2.8503125 5.55316406 2.200625 4.54382813 1.53125 3.50390625 C0 1 0 1 0 0 Z " fill="#FEEDD4" transform="translate(55,244)"/>
<path d="M0 0 C1.37871915 3.82977542 0.87113444 7.07989501 0 11 C-0.99 11.66 -1.98 12.32 -3 13 C-2.52060632 8.28596212 -2.03165952 4.33420699 0 0 Z " fill="#FBE5C7" transform="translate(105,169)"/>
<path d="M0 0 C0 0.99 0 1.98 0 3 C-1.43011973 3.86646667 -2.86940619 4.71781829 -4.3125 5.5625 C-5.51326172 6.27599609 -5.51326172 6.27599609 -6.73828125 7.00390625 C-9 8 -9 8 -12 7 C-8.04 4.69 -4.08 2.38 0 0 Z " fill="#D05D42" transform="translate(254,277)"/>
<path d="M0 0 C1.65 0 3.3 0 5 0 C5 0.66 5 1.32 5 2 C6.65 2 8.3 2 10 2 C10 2.66 10 3.32 10 4 C10.66 4.33 11.32 4.66 12 5 C7.43545749 4.45660208 4.0271824 3.20536179 0 1 C0 0.67 0 0.34 0 0 Z " fill="#D87748" transform="translate(236,191)"/>
<path d="M0 0 C0.625 1.875 0.625 1.875 1 4 C0.34 4.66 -0.32 5.32 -1 6 C-1.71408334 7.98356483 -2.38617742 9.98315437 -3 12 C-3.66 12 -4.32 12 -5 12 C-3.85814266 7.52040582 -2.56984833 3.85477249 0 0 Z " fill="#FDEBCA" transform="translate(112,152)"/>
<path d="M0 0 C2.00993705 3.01490557 2.72623341 5.2149927 3.625 8.6875 C3.88539063 9.68136719 4.14578125 10.67523438 4.4140625 11.69921875 C4.60742188 12.45847656 4.80078125 13.21773437 5 14 C4.01 13.67 3.02 13.34 2 13 C1.26953125 11.07421875 1.26953125 11.07421875 0.8125 8.6875 C0.65394531 7.90761719 0.49539063 7.12773437 0.33203125 6.32421875 C0 4 0 4 0 0 Z " fill="#FADDC8" transform="translate(303,123)"/>
<path d="M0 0 C1.46067199 0.45082469 2.91848032 0.91093537 4.375 1.375 C5.18710938 1.63023438 5.99921875 1.88546875 6.8359375 2.1484375 C9 3 9 3 11 5 C9.68 5.33 8.36 5.66 7 6 C7 5.34 7 4.68 7 4 C6.01 4 5.02 4 4 4 C4 3.34 4 2.68 4 2 C2.68 2 1.36 2 0 2 C0 1.34 0 0.68 0 0 Z " fill="#FEE9CC" transform="translate(232,107)"/>
<path d="M0 0 C2.4375 0.8125 2.4375 0.8125 5 2 C5.33 2.99 5.66 3.98 6 5 C6.66 5 7.32 5 8 5 C8.33 6.65 8.66 8.3 9 10 C5.73991357 6.83047153 2.77762123 3.60062011 0 0 Z " fill="#DC8144" transform="translate(275,79)"/>
<path d="M0 0 C4.05606165 0.46800711 7.46588679 0.87953208 11 3 C10.67 3.66 10.34 4.32 10 5 C6.08788267 3.84414715 3.1254959 2.64465038 0 0 Z " fill="#FBE9D7" transform="translate(240,79)"/>
<path d="M0 0 C-6.435 1.98 -6.435 1.98 -13 4 C-11 0 -11 0 -9.16015625 -0.64453125 C-8.46792969 -0.69996094 -7.77570313 -0.75539062 -7.0625 -0.8125 C-6.02802734 -0.91498047 -6.02802734 -0.91498047 -4.97265625 -1.01953125 C-3 -1 -3 -1 0 0 Z " fill="#E4A44A" transform="translate(138,41)"/>
<path d="M0 0 C0 0.66 0 1.32 0 2 C-3.03525486 4.02350324 -4.19426202 4.32124018 -7.6875 4.625 C-8.49574219 4.69976562 -9.30398437 4.77453125 -10.13671875 4.8515625 C-11.05904297 4.92503906 -11.05904297 4.92503906 -12 5 C-8.45976076 2.63984051 -4.36489861 0 0 0 Z " fill="#D45F46" transform="translate(242,285)"/>
<path d="M0 0 C0.33 0 0.66 0 1 0 C1.39253254 4.44870215 0.15305957 7.14243493 -2 11 C-2.66 10.67 -3.32 10.34 -4 10 C-3.52449439 8.51965236 -3.04448784 7.04074979 -2.5625 5.5625 C-2.29566406 4.73878906 -2.02882813 3.91507813 -1.75390625 3.06640625 C-1 1 -1 1 0 0 Z " fill="#E39B4B" transform="translate(82,136)"/>
<path d="M0 0 C0.66 0 1.32 0 2 0 C0.55049545 3.7910119 -1.15172566 7.3874638 -3 11 C-3.33 11 -3.66 11 -4 11 C-4.42820102 7.36029133 -3.97413512 5.95430537 -2.125 2.6875 C-1.42375 1.800625 -0.7225 0.91375 0 0 Z " fill="#FEEFDD" transform="translate(221,126)"/>
<path d="M0 0 C3.72433382 1.2125738 7.37802806 2.50859979 11 4 C10.67 4.99 10.34 5.98 10 7 C6.42032008 5.34784004 3.22017048 3.26875648 0 1 C0 0.67 0 0.34 0 0 Z " fill="#E08B45" transform="translate(249,57)"/>
<path d="M0 0 C0.33 0 0.66 0 1 0 C1.08131463 1.43655854 1.13933559 2.8744483 1.1875 4.3125 C1.23970703 5.51326172 1.23970703 5.51326172 1.29296875 6.73828125 C0.93801608 9.47851584 0.10633718 10.29171079 -2 12 C-1 3.42857143 -1 3.42857143 0 0 Z " fill="#FDEECC" transform="translate(40,138)"/>
<path d="M0 0 C3.48872415 1.16290805 4.09976864 2.13967609 6.1875 5.0625 C6.71730469 5.79597656 7.24710937 6.52945313 7.79296875 7.28515625 C8.19128906 7.85105469 8.58960938 8.41695312 9 9 C5.59453323 7.36275636 2.80202414 5.56852213 0 3 C0 2.01 0 1.02 0 0 Z " fill="#FDF1DA" transform="translate(269,74)"/>
<path d="M0 0 C-3.31371 2.20914 -4.3446021 2.22481553 -8.1875 2.125 C-9.08855469 2.10695312 -9.98960937 2.08890625 -10.91796875 2.0703125 C-11.60503906 2.04710937 -12.29210937 2.02390625 -13 2 C-13 1.67 -13 1.34 -13 1 C-11.58622218 0.63447197 -10.16879424 0.28304505 -8.75 -0.0625 C-7.96109375 -0.25972656 -7.1721875 -0.45695312 -6.359375 -0.66015625 C-3.89605178 -1.01497267 -2.34395868 -0.76877544 0 0 Z " fill="#FDEFC9" transform="translate(151,39)"/>
<path d="M0 0 C3.3 1.98 6.6 3.96 10 6 C9.01 6.33 8.02 6.66 7 7 C1.26229508 3.78688525 1.26229508 3.78688525 0 0 Z " fill="#D77443" transform="translate(136,273)"/>
<path d="M0 0 C0 3.90838866 -1.50567876 5.11594107 -4 8 C-4.99 7.67 -5.98 7.34 -7 7 C-4.69 4.69 -2.38 2.38 0 0 Z " fill="#FEEED4" transform="translate(131,127)"/>
<path d="M0 0 C3.39417765 3.12621626 5.6062718 5.56541027 7 10 C2.57320993 8.52440331 2.08567304 6.09942632 0 2 C0 1.34 0 0.68 0 0 Z " fill="#DA7C4C" transform="translate(286,115)"/>
<path d="M0 0 C0.99 0.33 1.98 0.66 3 1 C0.03 4.96 0.03 4.96 -3 9 C-3.33 7.68 -3.66 6.36 -4 5 C-3.34 5 -2.68 5 -2 5 C-1.7834375 4.0409375 -1.7834375 4.0409375 -1.5625 3.0625 C-1 1 -1 1 0 0 Z " fill="#FDF1D6" transform="translate(93,115)"/>
<path d="M0 0 C1.98 0.66 3.96 1.32 6 2 C6.33 3.65 6.66 5.3 7 7 C5.83040013 6.02433888 4.66438823 5.044375 3.5 4.0625 C2.8503125 3.51722656 2.200625 2.97195313 1.53125 2.41015625 C1.0259375 1.94480469 0.520625 1.47945313 0 1 C0 0.67 0 0.34 0 0 Z " fill="#D9753A" transform="translate(103,274)"/>
<path d="M0 0 C3.78611227 0.54087318 5.55400767 2.11722332 8 5 C8 5.66 8 6.32 8 7 C4.2047869 5.50902342 2.38957269 3.24299151 0 0 Z " fill="#FDECD9" transform="translate(132,268)"/>
<path d="M0 0 C2.11180592 2.57089417 3.66306057 4.63060567 4 8 C3.34 8.66 2.68 9.32 2 10 C0.39644899 6.49223216 -0.22036864 3.85645121 0 0 Z " fill="#DC7645" transform="translate(299,135)"/>
<path d="M0 0 C0.33 0 0.66 0 1 0 C1.25 3.3125 1.25 3.3125 1 7 C-0.32 7.99 -1.64 8.98 -3 10 C-2.01 6.7 -1.02 3.4 0 0 Z " fill="#FCECCA" transform="translate(46,120)"/>
<path d="M0 0 C0.66 0.33 1.32 0.66 2 1 C1.67 1.66 1.34 2.32 1 3 C0.34 3 -0.32 3 -1 3 C-1 3.66 -1 4.32 -1 5 C-2.65 5.33 -4.3 5.66 -6 6 C-4 4 -2 2 0 0 Z " fill="#DC8142" transform="translate(234,116)"/>
<path d="M0 0 C0 0.66 0 1.32 0 2 C-0.99 2.33 -1.98 2.66 -3 3 C-4.66710346 4.49985609 -4.66710346 4.49985609 -6 6 C-6.99 5.34 -7.98 4.68 -9 4 C-2.25 0 -2.25 0 0 0 Z " fill="#FDEDD5" transform="translate(157,110)"/>
</svg>
